<?xml version="1.0" encoding="UTF-8"?>
<svg xmlns="http://www.w3.org/2000/svg" xmlns:xlink="http://www.w3.org/1999/xlink" viewBox="0 0 1190.55 317.83">
  <defs>
    <style>
      .cls-1, .cls-2 {
        fill: #e31933;
      }

      .cls-3 {
        fill: #d1d3d4;
      }

      .cls-4 {
        fill: #ffd520;
      }

      .cls-4, .cls-2, .cls-5 {
        mix-blend-mode: multiply;
      }

      .cls-6 {
        fill: #231f20;
      }

      .cls-7 {
        fill: url(#radial-gradient);
      }

      .cls-8 {
        isolation: isolate;
      }

      .cls-9 {
        fill: #fff;
      }
    </style>
    <radialGradient id="radial-gradient" cx="130.15" cy="118.97" fx="130.15" fy="118.97" r="107.4" gradientTransform="translate(-21.32 -10.84) scale(.94)" gradientUnits="userSpaceOnUse">
      <stop offset="0" stop-color="#fff"/>
      <stop offset=".53" stop-color="#fdfdfd"/>
      <stop offset=".71" stop-color="#f6f6f6"/>
      <stop offset=".85" stop-color="#eaebeb"/>
      <stop offset=".96" stop-color="#d9dbdc"/>
      <stop offset="1" stop-color="#d1d3d4"/>
    </radialGradient>
  </defs>
  <g class="cls-8">
    <g id="Layer_1">
      <g>
        <path class="cls-7" d="M100.69,201.37C45.17,201.37,0,156.21,0,100.69,0,45.17,45.17,0,100.69,0c55.52,0,100.69,45.17,100.69,100.69,0,55.52-45.17,100.69-100.69,100.69Z"/>
        <path class="cls-3" d="M100.69,201.37C45.17,201.37,0,156.21,0,100.69,0,45.17,45.17,0,100.69,0c55.52,0,100.69,45.17,100.69,100.69,0,55.52-45.17,100.69-100.69,100.69ZM100.69,1.33c-54.79,0-99.36,44.57-99.36,99.35,0,54.78,44.57,99.35,99.36,99.35,54.78,0,99.36-44.57,99.36-99.35,0-54.78-44.57-99.35-99.36-99.35Z"/>
        <path class="cls-4" d="M200.69,98.46c0,.44-1.77,1.94-3.67,3.09-.05.02-.09.05-.14.08-2.58,1.41-6.24,2.72-10.79,3.92-4.66,1.23-10.43,2.34-16.75,3.31-6.35.97-13.4,1.7-21.01,2.38,0-.01,0,.02,0,0-9.73.87-15.86,1.24-23.62,1.63-8.24.34-16.81.52-25.5.51,0,1.1,0,2.21,0,3.32.01,7.81.04,15.26.07,22.27q.2,38.4,1.4,61.74c55.24,0,100.02-44.78,100.02-100.02,0,0-.02-1.45-.02-2.22Z"/>
        <g>
          <path class="cls-6" d="M99.21,116.7c.01,7.81.04,15.26.07,22.27q16.03,15.19,22.71,21.88c1.77-12.7,2.76-27.86,2.73-44.66,0-1.1,0-2.21-.02-3.32-10.13.4-16.81.52-25.5.51,0,1.1,0,2.21,0,3.32Z"/>
          <path class="cls-6" d="M135.92,177.93c-3.5-5.7-6.69-9.42-13.93-17.02-3.4,24.36-9.47,39.35-16.94,39.67.63-.03,1.61-.09,2.24-.12.8-.06,1.77-.14,2.56-.2,10.35-.92,19.26-8.87,26.07-22.32Z"/>
          <path class="cls-6" d="M147.12,137.11c.02-.15-5.76,30.04-11.21,40.82,3.14,6.04,3.27,8.45,2.01,12.42,9.71-7.37,17.72-18.49,23.23-32.25-3.54-7.2-5.94-11.03-14.03-20.98Z"/>
          <path class="cls-6" d="M118.48,199.15c2.18-.38,2.06-.42,6.09-1.33l2.4-.69c7.38-2.29,8.68-3.45,10.98-6.87-6.59,4.96-13.64,8-21.52,9.23l2.05-.34Z"/>
          <path class="cls-6" d="M162.94,174.6c14.42-16.34,23.24-39.4,23.2-65.73,0-1.11-.02-2.21-.05-3.31-4.66,1.23-10.43,2.34-16.75,3.31.09,1.11.12,2.24.12,3.34.03,17.12-2.88,32.68-8.17,45.82,2.98,7.63,3.02,10.83,1.65,16.56Z"/>
          <path class="cls-6" d="M148.33,111.24c-9.73.87-15.86,1.24-23.62,1.63,13.71,14.25,16.62,17.59,22.41,24.24.82-7.08,1.25-14.59,1.23-22.43,0-1.12-.01-2.31-.03-3.43Z"/>
        </g>
        <path class="cls-6" d="M78.76,5.83c5.58-2.26,10.93-4.59,21.73-5.2h0c-7.31.66-14.94,2.7-21.73,5.2"/>
        <g class="cls-5">
          <path class="cls-1" d="M167.67,108.85c-5.21-.69-9.57-9.49-7.28-18.45-7.32,5.06-15.57-5.34-14.36-14.97.64-5.1,3.98-9.63,9.8-7.53-2.37-8.14-5.33-15.85-8.8-22.93-5.17.65-10.84,1.2-16.86,1.62,5.35,8.08.1,15.59-7.35,14.39-5.41-.87-10.46-6.54-9.05-13.29-4.38,3.04-13.38,1.84-14.23-7.74-.24,20.34-.36,46.36-.33,73.42,26.58.26,57.73-2.58,70.13-4.52,0,0,0,.04,0,0-.51.04-1.18.05-1.67-.01Z"/>
        </g>
        <g class="cls-5">
          <path class="cls-1" d="M36.07,128.93c7.44-2.87,16.78,9.98,13.51,18.57-1.51,3.96-5.42,5.06-9.52,2.68,2.21,7.5,5.09,14.36,8.52,20.43,5.26.72,11.16,1.35,17.63,1.84-5.19-6.39-1.03-11.62,5.9-11.27,5.94.3,13.81,5.25,12.13,12,5.35-2.42,14.39-.44,15.48,6.53-.26-15-.44-37.02-.48-63.02,0-1.14-.01-2.18-.01-3.32-8.44.02-16.99-.3-25.51-.65-18.08-.75-30.38-1.79-45.51-4.37,0,.04,0-.05,0,0,7.76,2.62,9.89,14.17,7.88,20.57Z"/>
        </g>
        <path class="cls-2" d="M148.08,36.78h0s.05-.01.05-.01h.02s.05-.01.05-.01c.97-.16,1.89-.32,2.77-.48,5.72-1.05,18.7-4.17,18.7-7.95,0,0,5.09,5.11,8.83,12.2.45.77.73,1.48,1.14,2.6.45,1.25.73,2.71.67,3.41-.17,2.16-1.54,2.2-2.97,1.56-.15-.06-.3-.11-.46-.19-5.14-2.31-6.82-7.03-7.82-8.97-2.61.83-6.93,2.7-10.52,3.4-.41.08-1.18.26-1.61.34,4.24,6.97,8.27,15.29,11.17,23.35,5.04-5.18,12.92,4.43,13.3,13.71.22,5.45-2.22,10.3-7.2,8.55,3.98,7.38,2.71,18.2-4.86,20.57-1.26-24.27-5.37-45.81-21.36-72.05h0"/>
        <path class="cls-2" d="M147.97,36.82h0c-12.74-19.46-22.79-26.53-35.71-31.63-2.57-1.02-11.33-4.45-11.77-4.56l.04.08h0c2.28,3.34,6.84,5.31,7.83,5.61-.28,1.21-.07,3.63,4.14,6.68.66.47,1.29.84,1.9,1.15,6.5,3.4,7.94.75,8.24-.31.04-.03.08-.05.11-.08,1.99,1.46,5.85,4.57,10.12,9.4,2.46,2.95,4.78,5.53,6.52,8.11-4.01.51-9.34.98-14.61,1.36-.3-6.38-4.9-9.56-7.8-10.64-6.33-2.36-8.42,5.1-5.67,10.34-5.02-2.71-10.95-.29-11.78,7.63,19.81-.12,33.39-.99,48.45-3.13h0,0"/>
        <path class="cls-2" d="M149.22,18.7c-.05-.09-.11-.44-.04-.7.07-.26.29-.48.29-.48,0,0,.1-.26.49-.48,1.02-.59,4.03-.88,12.41,4.9C145.01,8.3,126.34,2.7,110.49,1.14c-2.24-.26-6.38-.43-6.38-.43,5.04.45,8.46,1.79,9.27,2.07.64.22,1.15.57,1.46.83.03,0,.05-.01.05-.01,1,.11,2.15.31,3.57.72,1.55.45,4.13,1.39,6.43,2.48,2.3,1.09,5.72,3.53,5.73,4.89-.53.32-.69.42-2.24,0,5.92,4.22,14.4,12.16,19.42,18.02,3.45-.65,8.58-1.39,10.95-2.18-.16.16-7.83-5.58-9.53-8.83Z"/>
        <path class="cls-2" d="M47.53,176.16c-8.58-1.55-13.51-2.85-16.79-4.53-.55-.28-.72-.29-.85-.31-.07-.01-4.88-4.94-9.11-10.43-3.07-3.99-5.66-8.48-5.94-8.91.03.04.69,0,1.1.14,4.49,1.49,11.51,13.76,11.59,13.89,2.78,1.04,6.4,2.01,10.76,2.89-4.1-6.19-7.54-13.14-10.19-20.72-6.24,3.15-14.2-13.34-11.68-20.29.51-1.42,2.17-4.37,6.39-1.18-3.18-7.34-2.32-18.37,5.37-18.35.17,24.31,3.5,45.27,19.34,67.79"/>
        <path class="cls-2" d="M99.55,181.12c-.86,3.47-5.72,6.77-12.6,3.97,3.21,4.24.43,7.9-5.22,6.88-4.4-.8-9.62-4.33-10.02-7.87-5.44-.41-10.4-.94-14.82-1.55,4.2,4.88,8.87,8.86,13.93,11.82.61-.25,1.54-.19,4.54.86,3.83,1.34,7.49,3.14,11.32,4.5,0,0-.81-.12-.81-.12-2.9-.45-3.61-.6-5.24-.92-7.37-1.45-20.2-5.65-33.09-22.53h0,0c15.53,2.4,30.65,3.43,52.19,3.57-.05.42-.06.99-.16,1.4"/>
        <path class="cls-4" d="M100.49.63c-53.63,0-98.78,43.78-99.8,98.14l.03.09c.04.16.54,1.16,2.65,2.48h0s0,0,0,0c2.11,1.33,5.22,2.73,9.33,3.79,5.09,1.31,10.42,2.37,15.39,3.22l.1.02c15.13,2.58,27.43,3.62,45.51,4.37,8.51.35,17.07.67,25.51.65,0-5.11-.04-34.16.2-62.21.03-3.62.08-7.41.12-11.21.22-18.28.61-36.88.96-39.33h0Z"/>
        <path class="cls-6" d="M148.4,188.62c-5.65,3.17-6.75,3.25-14.36,6.38-2.11.87-4.09,1.38-6.26,1.99,13.48-3.63,31.93-18.74,35.17-22.42-1.64,3.64-2.87,6.05-6.85,9.26-1.1.89-5.87,3.74-7.71,4.77Z"/>
        <path class="cls-6" d="M12.69,105.12c-4.17-1.02-7.22-2.46-9.33-3.79C4.47,65.14,24.58,33.03,53.87,15.45c-6.92,6.15-10,9.81-13.5,18.12-16.44,18.88-26.93,44.27-27.68,71.56"/>
        <path class="cls-6" d="M53.97,15.39c7.34-5.29,11.51-9.15,23.14-11.94,8.15-1.96,15.3-2.81,23.38-2.82h0c-16.86.72-32.71,6.49-46.52,14.76"/>
        <path class="cls-6" d="M48.62,111.12c-7.31-.71-14.22-1.68-20.44-2.75.41-18.14,4.2-35.52,10.77-50.92,2.54,10.11,4.7,15.55,11.84,27.54-1.28,8.47-2.03,17.24-2.17,26.14"/>
        <path class="cls-6" d="M99.54,39.96c-.13,11.02-.19,22.34-.22,31.08-.06,8.66-.09,14.93-.09,16.15-9.84-10.32-15.11-16.11-22.3-25.25,4.83-31.11,13.56-55.67,23.56-61.3h0c-.36,2.95-.74,20.62-.95,39.33Z"/>
        <path class="cls-6" d="M64.43,38.77c-6.29,13.26-10.99,29.14-13.57,46.2,6.11,9.1,9.89,14.4,22.07,27.73.13-17.88,1.59-35.23,4.02-50.84-7.32-9.97-9.64-14.72-12.52-23.1Z"/>
        <path class="cls-6" d="M196.88,101.63c.04,1.1.06,2.21.06,3.31.06,35.37-17.2,64.79-44.23,81.07l-.71.54c12.69-7.81,28.74-20.99,38.95-42.8,10.94-21.52,9.74-45.3,9.74-45.3-.54.97-2.15,2.2-3.81,3.17Z"/>
        <path class="cls-6" d="M78.76,5.83c-14.59,5.71-27.73,15.51-38.37,27.72-2.9,9.1-2.9,14.17-1.44,23.89,6.49-15.17,15.55-28.3,26.27-38.12,3.3-5.72,5.37-9.15,13.54-13.49Z"/>
        <path class="cls-6" d="M64.39,38.84c-1.81-8.17-1.95-12.33.79-19.44C75.62,9.78,87.66,2.63,100.49.63c-14.04,3.76-26.76,18.49-36.1,38.21"/>
      </g>
      <g>
        <path class="cls-9" d="M314.09,190.2l-44.21-92.53h-.35l-4.73,78.07c-.53,8.85,6.12,10.76,13.92,11.1v3.36h-36.14v-3.36c12.66,0,14.22-2.78,15.09-18.56l4.16-67.49c.7-11.45.35-14.57-10.4-15.27v-3.11h26.26l41.79,87.42,41.61-87.42h25.49v3.11c-8.5.7-11.79.87-11.44,6.77l5.55,78.59c1.04,15.96,2.43,15.96,15.08,15.96v3.36h-44.56v-3.36c8.15,0,16.13-2.26,15.43-11.45l-5.03-77.72h-.35l-43.17,92.53h-3.99Z"/>
        <path class="cls-9" d="M465.38,134.64h-30l14.74-40.13,15.26,40.13ZM468.32,142.35l11.62,31.51c.69,1.73,1.91,4.33,1.91,7.1,0,4.85-3.64,5.89-13.53,5.89h-4.51v3.36h47.69v-3.36c-8.67,0-12.31-1.73-15.78-10.9l-36.24-96.01h-15.09l1.56,3.8-31.56,85.98c-5.54,15.06-7.45,16.96-18.73,17.14v3.36h40.06v-3.36h-2.78c-9.54,0-14.04-1.73-14.04-6.41,0-2.42,2.25-7.62,3.47-10.91l10.06-27.18h35.89Z"/>
        <path class="cls-9" d="M542.55,84.59c3.14-.35,5.4-.35,8.71-.35,26.84,0,34.16,12.48,34.16,28.6,0,20.8-12.72,28.94-32.07,28.94-4.01,0-6.62.18-10.81-.35v-56.84ZM542.55,144.79c2.79.18,5.05.35,8.89.35,4.71,0,7.5-.18,11.85-.35,4.18,2.77,10.28,7.76,17.95,15.34l11.4,11.37c15.35,15.41,23.16,21.97,53.5,20.59v-3.11c-13.35-.86-23.93-7.25-34.15-17.43l-13.67-13.63c-8.08-8.11-13.24-12.95-19.69-18.04,14.19-4.16,22.96-15.08,22.96-28.08,0-17.68-14.27-30.92-46.48-30.92-11.33,0-14.79.18-21.85.53-7.07.33-17.65,1.02-21.81,1.02v3.36h3.81c10.06,0,13,3.12,13,13.87v72.87c0,11.54-3.64,14.3-13.87,14.3h-2.95v3.36h49.06v-3.36h-4.01c-9.76,0-13.94-2.58-13.94-12.92v-29.12Z"/>
        <path class="cls-9" d="M705.53,98.26c5.54-9.52,2.25-12.46-8.83-12.46v-3.36h39.08v3.36c-11.75.87-16.77,5.54-21.6,13.67l-28.73,48.61v25.95c0,9.17,3.29,12.8,13.85,12.8h2.25v3.36h-47.71v-3.36h3.32c10.84,0,13.99-3.98,13.99-12.46v-24.39l-31.01-48.1c-8.46-13.32-12.44-15.74-23.67-16.09v-3.36h46.11v3.36c-13.63,0-14.49,3.29-9.27,11.25l27.83,42.73,24.39-41.52Z"/>
        <path class="cls-9" d="M811.82,190.2h-77.41v-3.36h5.72c7.98,0,10.92-2.6,10.92-11.42v-76.63c0-9.18-2.77-12.99-13.69-12.99h-2.43v-3.36h51.05v3.36h-6.41c-11.27,0-14.22,1.21-14.22,11.95v79.85c0,4.68,1.91,6.41,6.94,6.41h25.49c10.23,0,13.35-3.98,24.28-19.15h3.12l-13.35,25.33Z"/>
        <path class="cls-9" d="M890.87,134.64h-30l14.74-40.13,15.26,40.13ZM893.81,142.35l11.62,31.51c.69,1.73,1.91,4.33,1.91,7.1,0,4.85-3.64,5.89-13.52,5.89h-4.51v3.36h47.69v-3.36c-8.67,0-12.32-1.73-15.78-10.9l-36.24-96.01h-15.09l1.56,3.8-31.56,85.98c-5.54,15.06-7.45,16.96-18.73,17.14v3.36h40.06v-3.36h-2.77c-9.54,0-14.04-1.73-14.04-6.41,0-2.42,2.25-7.62,3.47-10.91l10.06-27.18h35.89Z"/>
        <path class="cls-9" d="M1049.43,191.47l-89.65-93.9v74.22c0,12.46,2.77,15.05,17.48,15.05v3.36h-40.16v-3.36h.69c10.75,0,14.22-3.63,14.22-11.59v-85.11c-3.99-2.77-8.5-4.16-14.56-4.33v-3.36h27.18l81.53,85.12v-68.94c0-10.57-3.12-12.47-16.97-12.82v-3.36h40.51v3.36c-13,0-15.78,2.25-15.78,9.01v96.66h-4.49Z"/>
        <path class="cls-9" d="M1102,84.94c2.08-.17,6.77-.69,13.89-.69,24.3,0,36.63,6.06,44.62,14.01,10.24,10.21,13.89,24.39,13.89,37.2,0,17.82-7.98,31.14-14.41,37.37-10.76,10.73-20.49,14.01-43.75,14.01-13.71,0-14.24-2.42-14.24-9.52v-92.38ZM1087.71,174.21c0,10.03-4.34,12.63-13.7,12.63h-2.95v3.36h55.42c43.92,0,64.07-31.39,64.07-57.51,0-28.54-20.15-51.8-65.98-51.8-9.03,0-19.62.18-29.11.53-9.48.33-17.98.67-24.4,1.02v3.08h3.47c10.23,0,13.18,2.78,13.18,14.05v74.63Z"/>
        <path class="cls-9" d="M314.74,10.35v1.55c-5.6.08-7.61,2.34-7.61,7.69v22.56c0,10.36-6.61,21.48-24.74,21.48-15.95,0-24.17-9.11-24.17-21.06v-24.4c0-5.35-1.51-6.18-7.19-6.27v-1.55h21.51v1.55h-.75c-4.59,0-6.6,1.26-6.6,6.1v23.23c0,11.28,6.6,18.05,19.04,18.05,9.44,0,19.04-3.93,19.04-18.13v-19.47c0-8.02-1.25-9.44-8.19-9.78v-1.55h19.65Z"/>
        <path class="cls-9" d="M396.34,63.01l-43.21-45.41v35.95c0,6.03,1.33,7.29,8.43,7.29v1.55h-19.35v-1.55h.33c5.19,0,6.86-1.76,6.86-5.62V14c-1.92-1.34-4.1-2.01-7.03-2.1v-1.55h13.09l39.3,41.1V18.1c0-5.11-1.5-6.03-8.18-6.2v-1.55h19.52v1.55c-6.27,0-7.61,1.09-7.61,4.36v46.75h-2.15Z"/>
        <path class="cls-9" d="M460.09,62.39h-20.34v-1.55c5.19-.25,6.27-1.59,6.27-7.21V17.94c0-4.52-1.59-5.78-6.27-6.03v-1.55h20.34v1.55c-5.27,0-7.11,1.17-7.11,6.79v35.53c0,4.94,1.34,6.62,7.11,6.62v1.55Z"/>
        <path class="cls-9" d="M516.16,63.63l-18.15-45.21c-2.09-5.26-3.1-6.52-8.21-6.52v-1.55h23.01v1.55c-7.69.17-9.53,1.92-7.94,5.77l15.04,37.44,13.2-34.51c.92-2.34,1.42-4.01,1.42-5.18,0-2.51-2.09-3.51-7.77-3.51v-1.55h19.4v1.55c-4.35,0-6.61,2.01-8.61,7.19l-17.23,44.54h-4.17Z"/>
        <path class="cls-9" d="M611.82,43.56h-1.55c-.67-5.97-2.27-6.64-5.71-6.64h-14.19v17.9c0,3.87,1.43,4.62,4.53,4.62h12.93c5.83,0,7.58-2.27,9.67-9.51h1.5l-1.34,12.47h-44.47v-1.55h2.34c6.69,0,7.86-1.85,7.86-6.88V18.61c0-4.7-1.09-6.71-6.69-6.71h-1.84v-1.55h40.21l.67,11.6h-1.51c-1.09-7.14-3.16-8.65-6.16-8.65h-17.72v20.66h15.03c3.02,0,4.45-1.43,4.87-6.3h1.55v15.89Z"/>
        <path class="cls-9" d="M667.71,11.3c1.5-.17,2.59-.17,4.17-.17,12.86,0,16.36,6.03,16.36,13.82,0,10.05-6.1,13.99-15.36,13.99-1.92,0-3.17.08-5.18-.17V11.3ZM667.71,40.32c1.34.08,2.42.16,4.26.16,2.25,0,3.59-.08,5.68-.16,2.01,1.34,4.93,3.78,8.6,7.48l5.53,5.55c7.46,7.42,11.23,10.62,25.86,9.95v-1.52c-6.44-.42-11.54-3.52-16.48-8.47l-6.61-6.62c-3.95-3.94-6.47-6.29-9.56-8.68,6.87-2.01,11.15-7.29,11.15-13.57,0-8.54-6.97-14.87-22.42-14.87-5.43,0-7.1.08-10.54.25-3.44.2-8.54.53-10.55.53v1.55h1.84c4.85,0,6.27,1.51,6.27,6.7v35.26c0,5.63-1.76,6.98-6.69,6.98h-1.42v1.55h23.67v-1.55h-1.92c-4.68,0-6.68-1.26-6.68-6.31v-14.21Z"/>
        <path class="cls-9" d="M740.27,49.56c1.74,7.42,7.55,11.76,14.06,11.76,5.59,0,11.5-3.25,11.5-9.84,0-12.01-26.72-15.68-26.72-30.27,0-6.92,6.3-12.1,14.8-12.1,7,0,8.42,2.09,11.34,2.09.67,0,1-.17,1.5-.85h1.33l1.41,10.61h-1.41c-2.32-6-7.65-9.84-13.41-9.84s-9.34,3.17-9.34,7.84c0,11.84,26.72,15.01,26.72,30.35,0,8.17-7.21,14.31-16.97,14.31-4.59,0-10.42-2.3-11.58-2.3-.75,0-1.33.43-1.66,1.07h-1.41l-1.75-12.83h1.58Z"/>
        <path class="cls-9" d="M830.77,62.39h-20.35v-1.55c5.19-.25,6.28-1.59,6.28-7.21V17.94c0-4.52-1.59-5.78-6.28-6.03v-1.55h20.35v1.55c-5.27,0-7.11,1.17-7.11,6.79v35.53c0,4.94,1.34,6.62,7.11,6.62v1.55Z"/>
        <path class="cls-9" d="M890.21,54.72c0,4.53,1.51,6.12,6.61,6.12h3.1v1.55h-26.37v-1.55h3.09c5.11,0,6.61-1.59,6.61-6.12V13.3h-14.56c-3.35,0-4.85,1.93-6.11,9.31h-1.51l1.34-13.5h1.59c.08.49.42.82.92.99.5.17,1.09.25,1.67.25h40.25c1.17,0,2.43-.25,2.6-1.24h1.59l1.34,13.5h-1.5c-1.26-7.38-2.76-9.31-6.11-9.31h-14.56v41.42Z"/>
        <path class="cls-9" d="M981.64,17.94c2.69-4.61,1.1-6.03-4.3-6.03v-1.55h18.92v1.55c-5.68.42-8.1,2.68-10.44,6.62l-13.97,23.55v12.57c0,4.44,1.6,6.2,6.74,6.2h1.1v1.55h-22.97v-1.55h1.57c5.12,0,6.6-1.93,6.6-6.03v-11.81l-14.76-23.29c-4.11-6.45-6.04-7.62-11.49-7.79v-1.55h22.21v1.55c-6.45,0-6.86,1.59-4.37,5.45l13.28,20.7,11.88-20.11Z"/>
        <path class="cls-9" d="M1112.86,37.67c0,11.89-6.53,23.95-20.18,23.95s-24.12-11.05-24.12-26.71c0-10.05,5.86-23.78,20.6-23.78,13.82,0,23.7,10.97,23.7,26.55ZM1120.75,34.91c0-15.07-13.59-25.79-29.42-25.79-17.84,0-30.67,11.72-30.67,28.39,0,15.66,13.84,26.13,30.25,26.13s29.84-11.81,29.84-28.72Z"/>
        <path class="cls-9" d="M1177.3,42.36h-1.4c-.17-4.87-1.93-6.38-5.95-6.38h-15.5v18.39c0,4.7,1.01,6.47,7.29,6.47v1.55h-20.36v-1.55c5.19-.34,6.11-1.43,6.11-8.23V19.79c0-5.37-.42-7.8-6.27-7.88v-1.55h37.48v9.84h-1.4c-.08-4.87-1.76-6.88-6.95-6.88h-15.9v19.73h16.59c3.1,0,4.61-1.76,4.86-5.37h1.4v14.71Z"/>
        <rect class="cls-9" x="1069.23" y="82.3" width="1.98" height="3.23"/>
      </g>
      <rect class="cls-9" x="246" y="228.09" width="942.02" height="1.95"/>
      <g>
        <path class="cls-9" d="M268.55,316.39l-9.86-26.63-4.4,7.13v19.5h-7.44v-53.11h7.44v13.43c0,1.97-.08,6.83-.15,8.5.84-1.44,3.11-5.61,4.25-7.51l8.72-14.41h8.42l-11.53,18.66,12.59,34.44h-8.04Z"/>
        <path class="cls-9" d="M285.32,316.39v-53.11h24.96v7.21h-17.52v14.19h11.45v7.13h-11.45v17.38h18.51v7.21h-25.95Z"/>
        <path class="cls-9" d="M337.91,292.64v23.74h-7.43v-23.52l-13.51-29.59h8.42l4.7,11.08c1.14,2.66,3.64,9.26,4.17,11.08.53-1.9,2.96-8.42,4.1-11.16l4.55-11h8.12l-13.12,29.36Z"/>
        <path class="cls-9" d="M368.72,317.22c-6.68,0-11-3.49-14.03-8.65l5.84-4.7c2.89,4.55,5.39,5.91,8.65,5.91,4.02,0,6.37-2.43,6.37-6.75,0-4.09-1.75-6.44-8.88-11.15-5.99-3.95-10.7-7.81-10.7-16.16,0-7.74,5.16-13.28,13.43-13.28,6.15,0,9.71,2.58,12.9,7.21l-5.46,4.86c-2.58-3.41-4.32-4.63-7.66-4.63-3.56,0-5.54,2.27-5.54,5.61,0,3.95,1.82,6.14,7.74,9.94,6.6,4.25,11.83,8.34,11.83,17.22s-5.08,14.57-14.49,14.57Z"/>
        <path class="cls-9" d="M406.66,270.56v45.82h-7.44v-45.82h-9.78v-7.28h27.01v7.28h-9.78Z"/>
        <path class="cls-9" d="M437.93,317.22c-11.23,0-15.93-11.91-15.93-27.31s4.78-27.46,16.01-27.46,16.08,11.91,16.08,27.31-4.93,27.46-16.16,27.46ZM437.85,269.88c-6.45,0-8.27,10.01-8.27,19.88s2.12,20.02,8.57,20.02,8.35-10.01,8.35-19.88-2.2-20.02-8.65-20.02Z"/>
        <path class="cls-9" d="M488.39,316.39l-12.82-28.45c-1.06-2.27-3.03-7.21-3.72-8.72.07,1.97.15,8.04.15,10.62v26.56h-7.28v-53.11h7.43l11.46,25.26c1.06,2.27,3.04,7.21,3.72,8.72-.08-1.97-.15-8.04-.15-10.62v-23.37h7.28v53.11h-6.07Z"/>
        <path class="cls-9" d="M506.99,316.39v-53.11h24.96v7.21h-17.52v14.19h11.45v7.13h-11.45v17.38h18.51v7.21h-25.95Z"/>
        <path class="cls-9" d="M574.9,294.76h-6.22v21.62h-7.44v-53.11h14.03c7.51,0,14.95,4.48,14.95,15.48s-7.28,16.01-15.32,16.01ZM574.74,270.56h-6.07v16.99h6.3c4.32,0,7.58-2.81,7.58-8.57s-3.56-8.42-7.81-8.42Z"/>
        <path class="cls-9" d="M621.03,316.39l-8.04-23.14h-6.15v23.14h-7.43v-53.11h14.94c7.74,0,14.8,4.18,14.8,14.72,0,7.66-3.34,11.98-8.35,13.96l8.49,24.43h-8.27ZM613.75,270.49h-6.9v15.63h6.9c4.78,0,7.74-2.35,7.74-7.89s-3.26-7.74-7.74-7.74Z"/>
        <path class="cls-9" d="M653.21,317.22c-11.23,0-15.93-11.91-15.93-27.31s4.78-27.46,16.01-27.46,16.08,11.91,16.08,27.31-4.93,27.46-16.16,27.46ZM653.13,269.88c-6.45,0-8.27,10.01-8.27,19.88s2.13,20.02,8.57,20.02,8.35-10.01,8.35-19.88-2.2-20.02-8.65-20.02Z"/>
        <path class="cls-9" d="M694.11,317.22c-11.31,0-16.01-12.21-16.01-27.39,0-16.01,5.16-27.38,16.23-27.38,8.65,0,12.67,5.01,14.19,12.97l-7.44,1.97c-1.21-5.46-3.18-7.44-6.98-7.44-5.84,0-8.35,8.5-8.35,19.88,0,9.03,1.9,19.88,8.88,19.88,5,0,6.83-3.04,6.83-9.56v-3.79h-5.92v-7.28h13.5v11.76c0,8.95-4.25,16.39-14.94,16.39Z"/>
        <path class="cls-9" d="M742.3,316.39l-8.04-23.14h-6.14v23.14h-7.44v-53.11h14.95c7.74,0,14.79,4.18,14.79,14.72,0,7.66-3.34,11.98-8.35,13.96l8.5,24.43h-8.27ZM735.01,270.49h-6.9v15.63h6.9c4.78,0,7.74-2.35,7.74-7.89s-3.26-7.74-7.74-7.74Z"/>
        <path class="cls-9" d="M782.67,316.39l-3.11-14.03h-11.54l-3.03,14.03h-7.89l13.05-53.11h7.66l12.97,53.11h-8.12ZM776.07,286.35c-.76-3.49-1.9-9.64-2.28-11.61-.38,1.97-1.51,8.04-2.27,11.61l-1.97,8.95h8.5l-1.97-8.95Z"/>
        <path class="cls-9" d="M828.42,316.39v-21.39c0-3.34.07-11.08.15-13.12-.61,2.12-2.88,9.86-4.09,13.73l-6.83,22.23-6.83-22.23c-1.22-3.87-3.49-11.61-4.1-13.73.08,2.05.15,9.79.15,13.12v21.39h-6.98v-53.11h7.81l6.83,22.08c.99,3.18,2.81,9.71,3.26,11.61.53-1.97,2.36-8.72,3.34-11.84l6.82-21.85h7.74v53.11h-7.28Z"/>
      </g>
    </g>
  </g>
</svg>